<?xml version="1.0" encoding="utf-8"?>
<!-- Generator: Adobe Illustrator 16.0.0, SVG Export Plug-In . SVG Version: 6.00 Build 0)  -->
<!DOCTYPE svg PUBLIC "-//W3C//DTD SVG 1.1//EN" "http://www.w3.org/Graphics/SVG/1.1/DTD/svg11.dtd">
<svg version="1.1" id="Layer_1" xmlns="http://www.w3.org/2000/svg" xmlns:xlink="http://www.w3.org/1999/xlink" x="0px" y="0px"
	 width="657px" height="233px" viewBox="0 0 657 233" enable-background="new 0 0 657 233" xml:space="preserve">
<g id="Maslow">
	<polygon fill="none" stroke="#000000" stroke-miterlimit="10" points="284.435,79.19 264.287,132.887 264.055,132.887 
		243.9,79.175 238.643,79.175 222.355,79.184 222.355,156.191 238.643,156.184 238.643,106.375 257.398,156.184 257.482,156.184 
		257.482,156.2 264.161,156.2 270.939,156.2 289.693,106.391 289.693,156.2 305.984,156.191 305.984,79.183 289.693,79.19 	"/>
	<path fill="none" stroke="#000000" stroke-miterlimit="10" d="M362.629,116.709c0,0,1.201-17.289-26.089-17.289
		c-24.321,0-23.599,17.05-23.599,17.05l15.414,1.226c0.407-4.077,4.412-5.26,6.389-5.658c0.604-0.104,1.277-0.178,2.054-0.171
		c6.026,0.054,8.727,2.548,9.156,6.427c0.17,1.4,0.212,3.034,0.212,4.896c0,0-35.139-3.562-35.139,17.063
		c0,0-1.141,17.052,19.771,17.052c0,0,10.591,0.062,16.366-7.721c1.089,4.336,2.734,6.607,2.734,6.607h16.263
		c-3.198-3.933-3.525-16.775-3.525-16.775L362.629,116.709z M346.167,141.174c-2.906,4.143-17.714,6.153-17.714-1.633
		c0-7.789,10.121-7.076,10.121-7.076h7.593V141.174z"/>
	<path fill="none" stroke="#000000" stroke-miterlimit="10" d="M405.53,123.234l0.044-0.039c-0.11-0.014-0.212-0.028-0.32-0.043
		c-2.034-0.59-3.846-0.981-5.154-1.221v-0.002c-0.007,0-0.013,0-0.02-0.003c-1.307-0.237-2.112-0.329-2.112-0.329l-0.004,0.006
		c-11.377-1.99-10.475-6.438-10.475-6.438s-0.881-5.015,8.08-5.004c9.243,0.011,9.806,7.419,9.806,7.419l16.978-1.244
		c0,0-0.009-16.916-26.507-16.917c-26.938,0-27.062,16.682-27.062,16.682c0,12.681,16.944,16.584,22.928,17.57
		c0.014,0.003,0.022,0.004,0.033,0.006c12.593,2.274,11.695,6.618,11.695,6.618s0.631,5.408-8.599,5.408
		c-9.226,0-10.104-7.021-10.104-7.021l-17.479,0.848c0,0-0.022,18.033,27.268,18.033c27.741,0,27.902-17.797,27.902-17.797
		C422.428,130.062,412.717,125.375,405.53,123.234z"/>
	<rect x="427.76" y="79.172" fill="none" stroke="#000000" stroke-miterlimit="10" width="17.24" height="77.01"/>
	<path fill="none" stroke="#000000" stroke-miterlimit="10" d="M479.14,99.421c-19.694,0-28.596,13.204-28.596,28.942
		s8.899,28.94,28.596,28.94c19.697,0,28.688-13.055,28.688-28.94C507.828,112.476,498.836,99.421,479.14,99.421z M479.178,144.727
		c-1.961,0.051-9.989-0.726-9.989-16.861c0-16.137,8.028-16.914,9.989-16.863c1.961-0.051,9.991,0.726,9.991,16.863
		C489.169,144.001,481.139,144.777,479.178,144.727z"/>
	<polygon fill="none" stroke="#000000" stroke-miterlimit="10" points="573.008,100.591 564.501,136.331 556.367,100.591 
		549.293,100.591 542.445,100.591 533.938,136.331 525.805,100.591 507.764,100.591 521.167,156.136 542.536,156.136 
		549.287,123.593 549.293,123.593 549.299,123.593 556.05,156.136 577.419,156.136 590.822,100.591 	"/>
</g>
<g id="Badge">
	<path fill="none" stroke="#000000" stroke-miterlimit="10" d="M125.458,44.447c-40.212,0-72.81,32.598-72.81,72.811
		s32.598,72.811,72.81,72.811c40.213,0,72.81-32.598,72.81-72.811S165.671,44.447,125.458,44.447z M163.618,147.79
		c-0.504,0.635-1.226,1.058-2.026,1.188c-9.372,1.516-16.004-0.435-19.718-5.795c-5.158-7.445-3.067-20.328,1.025-32.651
		l-29.267,41.573c-0.625,0.889-1.628,1.381-2.659,1.381c-0.449,0-0.903-0.094-1.334-0.288c-1.42-0.642-2.187-2.2-1.826-3.716
		l12.131-50.945L90.9,141.727c7.914,11.304,20.688,18.008,34.558,18.008c8.729,0,17.104-2.642,24.22-7.639
		c1.468-1.031,3.496-0.677,4.527,0.793c1.031,1.469,0.677,3.495-0.792,4.526c-8.215,5.771-17.882,8.819-27.955,8.819
		c-15.172,0-29.206-6.957-38.405-18.789l-0.51,0.76c-1.002,1.49-3.021,1.885-4.51,0.883c-1.49-1.001-1.885-3.021-0.883-4.51
		l43.418-64.563c0.876-1.304,2.56-1.793,4.001-1.164c1.439,0.631,2.222,2.201,1.857,3.73l-12.37,51.95l34.64-49.206
		c-7.611-6.45-17.175-9.981-27.237-9.981c-23.267,0-42.195,18.929-42.195,42.195c0,4.604,0.736,9.13,2.189,13.453
		c0.572,1.701-0.344,3.544-2.045,4.115c-0.343,0.117-0.692,0.17-1.036,0.17c-1.357,0-2.624-0.856-3.08-2.215
		c-1.677-4.99-2.528-10.213-2.528-15.523c0-26.851,21.845-48.695,48.695-48.695c11.418,0,22.279,3.941,30.991,11.149l0.954-1.355
		c0.999-1.42,2.936-1.804,4.401-0.872c1.464,0.931,1.939,2.849,1.078,4.355c-9.684,16.942-22.5,47.497-15.664,57.361
		c2.027,2.925,6.089,4.021,12.084,3.26c5.468-7.317,8.351-16.003,8.351-25.204c0-8.116-2.31-15.997-6.68-22.792
		c-0.971-1.509-0.534-3.521,0.976-4.491c1.51-0.971,3.521-0.534,4.491,0.976c5.046,7.845,7.713,16.942,7.713,26.307
		C174.154,128.646,170.511,139.107,163.618,147.79z"/>
</g>
</svg>
